<svg width="60" height="36" xmlns="http://www.w3.org/2000/svg">
  <g fill="#FFF" fill-rule="evenodd">
    <path d="M2.23871905 0H28.2530834c1.2364104 0 2.2387199.96081961 2.2387199 2.14605067 0 .5615838-.229638 1.1007933-.6396364 1.50192419L17.0196 16.2029938c-.8528475.8344018-.8528475 2.1694466 0 3.0038484l12.8325669 12.555019c.8653079.8465927.8508446 2.2053261-.0323047 3.0348159-.4184521.3930273-.9809453.613159-1.5667788.613159H2.23871905C1.00230866 35.4098361 0 34.4490165 0 33.2637854V2.14605067C0 .96081961 1.00230866 0 2.23871905 0zM42.4249396 30.7506471c-1.1444436 0-2.1754585-.2331885-3.0930754-.6995727-.9176169-.4663842-1.6367498-1.1183092-2.15742-1.9557947-.5206703-.8374855-.7810016-1.7877916-.7810016-2.8509468s.2603313-2.0134613.7810016-2.8509468c.5206702-.8374855 1.2398031-1.4894106 2.15742-1.9557947.9176169-.4663842 1.9486318-.6995727 3.0930754-.6995727 1.0516508 0 1.9898744.1805331 2.8146985.5416047.8248243.3610716 1.505294.8826116 2.0414298 1.5646357l-2.3043411 2.0009284c-.6701698-.8224408-1.4588961-1.2336551-2.3662028-1.2336551-.7629623 0-1.3764161.2382033-1.8403797.7146172-.4639637.4764139-.695942 1.115802-.695942 1.9181833s.2319783 1.4417693.695942 1.9181832c.4639636.476414 1.0774174.7146173 1.8403797.7146173.9073067 0 1.696033-.4112143 2.3662028-1.2336551l2.3043411 2.0009284c-.5361358.6820241-1.2166055 1.2035641-2.0414298 1.5646357-.8248241.3610716-1.7630477.5416047-2.8146985.5416047zm11.3489243-11.0126284c1.1650642 0 2.2115442.2356959 3.1394715.707095.9279272.471399 1.6547927 1.1258314 2.1806181 1.9633169.5258254.8374855.7887342 1.7827768.7887342 2.8359023s-.2629088 1.9984168-.7887342 2.8359023c-.5258254.8374854-1.2526909 1.4919179-2.1806181 1.9633169-.9279273.471399-1.9744073.707095-3.1394715.707095s-2.2115442-.235696-3.1394715-.707095c-.9279272-.471399-1.6547927-1.1258315-2.1806181-1.9633169-.5258255-.8374855-.7887342-1.7827768-.7887342-2.8359023s.2629087-1.9984168.7887342-2.8359023c.5258254-.8374855 1.2526909-1.4919179 2.1806181-1.9633169.9279273-.4713991 1.9744073-.707095 3.1394715-.707095zm-4e-7 2.8735137c-.4536533 0-.8634817.1078183-1.2294974.3234583-.3660158.21564-.6572775.5215433-.8737938.9177191-.2165164.3961757-.3247729.8600455-.3247729 1.3916231 0 .5315776.1082565.9954473.3247729 1.3916231.2165163.3961758.507778.7020791.8737938.9177191.3660157.2156399.7758441.3234583 1.2294974.3234583.4536533 0 .8634817-.1078184 1.2294975-.3234583.3660157-.21564.6572774-.5215433.8737938-.9177191.2165163-.3961758.3247729-.8600455.3247729-1.3916231 0-.5315776-.1082566-.9954474-.3247729-1.3916231-.2165164-.3961758-.5077781-.7020791-.8737938-.9177191-.3660158-.21564-.7758442-.3234583-1.2294975-.3234583zm-8.4765448-10.8340708c.6447149.2412302 1.1438414.5925819 1.4973948 1.0540658.3535532.4614838.5303272 1.0173539.5303272 1.6676265 0 .9649209-.3951419 1.7121989-1.1854374 2.2418566-.7902956.5296576-1.9341274.7944825-3.4315294.7944825h-6.1455573V6.52286454h5.8336c1.4558076 0 2.5554459.26220286 3.2989476.7866163.7435017.52441355 1.115247 1.22187304 1.115247 2.0923994 0 .51392523-.1273812.97540426-.3821475 1.38444476-.2547664.4090425-.6317109.7394181-1.130845.9911366zm-5.1160984-2.65876317v1.63616187h1.7157647c.8006943 0 1.2010353-.2726909 1.2010353-.81808094 0-.54539008-.400341-.81808093-1.2010353-.81808093h-1.7157647zm2.2148963 5.82096067c.8110928 0 1.2166331-.2884231 1.2166331-.8652779 0-.5768549-.4055403-.8652779-1.2166331-.8652779h-2.2148963v1.7305558h2.2148963zm10.6160417-1.0540658l-.8266867.9282072v2.7216925h-3.6187037V6.52286454h3.6187037v3.99601086l3.587508-3.99601086h4.0086503l-4.3674011 4.84555656L60 17.535493h-4.2582161l-2.7296256-3.6498997z"/>
  </g>
</svg>
